<svg width="1280" height="720" viewBox="0 0 1280 720" fill="none" xmlns="http://www.w3.org/2000/svg">
<g clip-path="url(#clip0_2002_2)">
<rect width="1280" height="720" fill="white"/>
<rect x="318.5" y="108.5" width="164" height="71" rx="6.5" fill="#8C9791" fill-opacity="0.24" stroke="#BAFFD5"/>
<rect x="20.5" y="214.5" width="338" height="485" rx="6.5" fill="#8C9791" fill-opacity="0.24" stroke="#BAFFD5"/>
<rect x="399.5" y="214.5" width="857" height="206" rx="6.5" fill="#8C9791" fill-opacity="0.24" stroke="#BAFFD5"/>
<rect x="399.5" y="462.5" width="398" height="237" rx="6.5" fill="#8C9791" fill-opacity="0.24" stroke="#BAFFD5"/>
<rect x="838.5" y="462.5" width="418" height="237" rx="6.5" fill="#8C9791" fill-opacity="0.24" stroke="#BAFFD5"/>
<rect x="512.5" y="108.5" width="164" height="71" rx="6.5" fill="#8C9791" fill-opacity="0.24" stroke="#BAFFD5"/>
<rect x="706.5" y="108.5" width="164" height="71" rx="6.5" fill="#8C9791" fill-opacity="0.24" stroke="#BAFFD5"/>
<rect x="900.5" y="108.5" width="164" height="71" rx="6.5" fill="#8C9791" fill-opacity="0.24" stroke="#BAFFD5"/>
<rect x="1091.5" y="108.5" width="164" height="71" rx="6.5" fill="#8C9791" fill-opacity="0.24" stroke="#BAFFD5"/>
<rect x="167" width="1124" height="74" fill="#2ECC71"/>
<circle cx="259.5" cy="-7.5" r="119" fill="#2ECC71" stroke="white" stroke-width="3"/>
<path d="M229.414 37H227.57V29.75C227.57 29.1562 227.607 28.4297 227.68 27.5703H227.648C227.534 28.0599 227.432 28.4115 227.344 28.625L224 37H222.719L219.367 28.6875C219.273 28.4427 219.174 28.0703 219.07 27.5703H219.039C219.081 28.0182 219.102 28.75 219.102 29.7656V37H217.383V25.7969H220L222.945 33.2578C223.169 33.8307 223.315 34.2578 223.383 34.5391H223.422C223.615 33.9505 223.771 33.513 223.891 33.2266L226.891 25.7969H229.414V37ZM238.75 33.4922H233.297C233.318 34.2318 233.544 34.8021 233.977 35.2031C234.414 35.6042 235.013 35.8047 235.773 35.8047C236.628 35.8047 237.411 35.5495 238.125 35.0391V36.5C237.396 36.9583 236.432 37.1875 235.234 37.1875C234.057 37.1875 233.133 36.8255 232.461 36.1016C231.794 35.3724 231.461 34.349 231.461 33.0312C231.461 31.7865 231.828 30.7734 232.562 29.9922C233.302 29.2057 234.219 28.8125 235.312 28.8125C236.406 28.8125 237.253 29.1641 237.852 29.8672C238.451 30.5703 238.75 31.5469 238.75 32.7969V33.4922ZM237 32.2109C236.995 31.5599 236.841 31.0547 236.539 30.6953C236.237 30.3307 235.82 30.1484 235.289 30.1484C234.768 30.1484 234.326 30.3385 233.961 30.7188C233.602 31.099 233.38 31.5964 233.297 32.2109H237ZM237.539 24.9219L235.305 27.4844H233.961L235.852 24.9219H237.539ZM244.695 36.9141C244.341 37.0911 243.875 37.1797 243.297 37.1797C241.745 37.1797 240.969 36.4349 240.969 34.9453V30.4219H239.633V29H240.969V27.1484L242.781 26.6328V29H244.695V30.4219H242.781V34.4219C242.781 34.8958 242.867 35.2344 243.039 35.4375C243.211 35.6406 243.497 35.7422 243.898 35.7422C244.206 35.7422 244.471 35.6536 244.695 35.4766V36.9141ZM250.898 30.7266C250.68 30.5547 250.365 30.4688 249.953 30.4688C249.417 30.4688 248.969 30.7109 248.609 31.1953C248.25 31.6797 248.07 32.3385 248.07 33.1719V37H246.258V29H248.07V30.6484H248.102C248.279 30.0859 248.549 29.6484 248.914 29.3359C249.284 29.0182 249.695 28.8594 250.148 28.8594C250.477 28.8594 250.727 28.9089 250.898 29.0078V30.7266ZM253.094 27.3203C252.797 27.3203 252.542 27.224 252.328 27.0312C252.12 26.8385 252.016 26.5938 252.016 26.2969C252.016 26 252.12 25.7526 252.328 25.5547C252.542 25.3568 252.797 25.2578 253.094 25.2578C253.401 25.2578 253.661 25.3568 253.875 25.5547C254.089 25.7526 254.195 26 254.195 26.2969C254.195 26.5781 254.089 26.8203 253.875 27.0234C253.661 27.2214 253.401 27.3203 253.094 27.3203ZM253.992 37H252.18V29H253.992V37ZM262.094 36.6328C261.453 37.0026 260.695 37.1875 259.82 37.1875C258.633 37.1875 257.674 36.8177 256.945 36.0781C256.216 35.3333 255.852 34.3698 255.852 33.1875C255.852 31.8698 256.242 30.8125 257.023 30.0156C257.81 29.2135 258.859 28.8125 260.172 28.8125C260.901 28.8125 261.544 28.9401 262.102 29.1953V30.8828C261.544 30.4661 260.951 30.2578 260.32 30.2578C259.555 30.2578 258.927 30.5182 258.438 31.0391C257.948 31.5547 257.703 32.2318 257.703 33.0703C257.703 33.8984 257.932 34.5521 258.391 35.0312C258.854 35.5104 259.474 35.75 260.25 35.75C260.901 35.75 261.516 35.5182 262.094 35.0547V36.6328ZM270.039 37H268.281V35.75H268.25C267.698 36.7083 266.888 37.1875 265.82 37.1875C265.034 37.1875 264.417 36.974 263.969 36.5469C263.526 36.1198 263.305 35.5547 263.305 34.8516C263.305 33.3411 264.174 32.4609 265.914 32.2109L268.289 31.875C268.289 30.7344 267.747 30.1641 266.664 30.1641C265.711 30.1641 264.852 30.4922 264.086 31.1484V29.5625C264.93 29.0625 265.904 28.8125 267.008 28.8125C269.029 28.8125 270.039 29.8073 270.039 31.7969V37ZM268.289 33.0703L266.609 33.3047C266.089 33.3724 265.695 33.5 265.43 33.6875C265.169 33.8698 265.039 34.1927 265.039 34.6562C265.039 34.9948 265.159 35.2734 265.398 35.4922C265.643 35.7057 265.969 35.8125 266.375 35.8125C266.927 35.8125 267.383 35.6198 267.742 35.2344C268.107 34.8438 268.289 34.3542 268.289 33.7656V33.0703ZM271.758 36.75V35.0703C272.435 35.5859 273.182 35.8438 274 35.8438C275.094 35.8438 275.641 35.5208 275.641 34.875C275.641 34.6927 275.594 34.5391 275.5 34.4141C275.406 34.2839 275.279 34.1693 275.117 34.0703C274.961 33.9714 274.773 33.8828 274.555 33.8047C274.341 33.7266 274.102 33.638 273.836 33.5391C273.508 33.4089 273.211 33.2708 272.945 33.125C272.685 32.9792 272.466 32.8151 272.289 32.6328C272.117 32.4453 271.987 32.2344 271.898 32C271.81 31.7656 271.766 31.4922 271.766 31.1797C271.766 30.7943 271.857 30.4557 272.039 30.1641C272.221 29.8672 272.466 29.6198 272.773 29.4219C273.081 29.2188 273.43 29.0677 273.82 28.9688C274.211 28.8646 274.615 28.8125 275.031 28.8125C275.771 28.8125 276.432 28.9245 277.016 29.1484V30.7344C276.453 30.349 275.807 30.1562 275.078 30.1562C274.849 30.1562 274.641 30.1797 274.453 30.2266C274.271 30.2734 274.115 30.3385 273.984 30.4219C273.854 30.5052 273.753 30.6068 273.68 30.7266C273.607 30.8411 273.57 30.9688 273.57 31.1094C273.57 31.2812 273.607 31.4271 273.68 31.5469C273.753 31.6667 273.859 31.7734 274 31.8672C274.146 31.9557 274.318 32.0391 274.516 32.1172C274.719 32.1901 274.951 32.2708 275.211 32.3594C275.555 32.5 275.862 32.6432 276.133 32.7891C276.409 32.9349 276.643 33.1016 276.836 33.2891C277.029 33.4714 277.177 33.6849 277.281 33.9297C277.385 34.1693 277.438 34.4557 277.438 34.7891C277.438 35.1953 277.344 35.5495 277.156 35.8516C276.969 36.1536 276.719 36.4036 276.406 36.6016C276.094 36.7995 275.732 36.9453 275.32 37.0391C274.914 37.138 274.484 37.1875 274.031 37.1875C273.156 37.1875 272.398 37.0417 271.758 36.75ZM290.344 33.4922H284.891C284.911 34.2318 285.138 34.8021 285.57 35.2031C286.008 35.6042 286.607 35.8047 287.367 35.8047C288.221 35.8047 289.005 35.5495 289.719 35.0391V36.5C288.99 36.9583 288.026 37.1875 286.828 37.1875C285.651 37.1875 284.727 36.8255 284.055 36.1016C283.388 35.3724 283.055 34.349 283.055 33.0312C283.055 31.7865 283.422 30.7734 284.156 29.9922C284.896 29.2057 285.812 28.8125 286.906 28.8125C288 28.8125 288.846 29.1641 289.445 29.8672C290.044 30.5703 290.344 31.5469 290.344 32.7969V33.4922ZM288.594 32.2109C288.589 31.5599 288.435 31.0547 288.133 30.6953C287.831 30.3307 287.414 30.1484 286.883 30.1484C286.362 30.1484 285.919 30.3385 285.555 30.7188C285.195 31.099 284.974 31.5964 284.891 32.2109H288.594ZM302.969 37H296.68V25.7969H302.719V27.375H298.539V30.5469H302.391V32.1172H298.539V35.4297H302.969V37ZM309.281 26.6328C309.036 26.4922 308.758 26.4219 308.445 26.4219C307.565 26.4219 307.125 26.9193 307.125 27.9141V29H308.984V30.4219H307.133V37H305.32V30.4219H303.953V29H305.32V27.7031C305.32 26.8594 305.596 26.1953 306.148 25.7109C306.701 25.2214 307.391 24.9766 308.219 24.9766C308.667 24.9766 309.021 25.026 309.281 25.125V26.6328ZM311.188 27.3203C310.891 27.3203 310.635 27.224 310.422 27.0312C310.214 26.8385 310.109 26.5938 310.109 26.2969C310.109 26 310.214 25.7526 310.422 25.5547C310.635 25.3568 310.891 25.2578 311.188 25.2578C311.495 25.2578 311.755 25.3568 311.969 25.5547C312.182 25.7526 312.289 26 312.289 26.2969C312.289 26.5781 312.182 26.8203 311.969 27.0234C311.755 27.2214 311.495 27.3203 311.188 27.3203ZM312.086 37H310.273V29H312.086V37ZM320.188 36.6328C319.547 37.0026 318.789 37.1875 317.914 37.1875C316.727 37.1875 315.768 36.8177 315.039 36.0781C314.31 35.3333 313.945 34.3698 313.945 33.1875C313.945 31.8698 314.336 30.8125 315.117 30.0156C315.904 29.2135 316.953 28.8125 318.266 28.8125C318.995 28.8125 319.638 28.9401 320.195 29.1953V30.8828C319.638 30.4661 319.044 30.2578 318.414 30.2578C317.648 30.2578 317.021 30.5182 316.531 31.0391C316.042 31.5547 315.797 32.2318 315.797 33.0703C315.797 33.8984 316.026 34.5521 316.484 35.0312C316.948 35.5104 317.568 35.75 318.344 35.75C318.995 35.75 319.609 35.5182 320.188 35.0547V36.6328ZM322.906 27.3203C322.609 27.3203 322.354 27.224 322.141 27.0312C321.932 26.8385 321.828 26.5938 321.828 26.2969C321.828 26 321.932 25.7526 322.141 25.5547C322.354 25.3568 322.609 25.2578 322.906 25.2578C323.214 25.2578 323.474 25.3568 323.688 25.5547C323.901 25.7526 324.008 26 324.008 26.2969C324.008 26.5781 323.901 26.8203 323.688 27.0234C323.474 27.2214 323.214 27.3203 322.906 27.3203ZM323.805 37H321.992V29H323.805V37ZM332.953 33.4922H327.5C327.521 34.2318 327.747 34.8021 328.18 35.2031C328.617 35.6042 329.216 35.8047 329.977 35.8047C330.831 35.8047 331.615 35.5495 332.328 35.0391V36.5C331.599 36.9583 330.635 37.1875 329.438 37.1875C328.26 37.1875 327.336 36.8255 326.664 36.1016C325.997 35.3724 325.664 34.349 325.664 33.0312C325.664 31.7865 326.031 30.7734 326.766 29.9922C327.505 29.2057 328.422 28.8125 329.516 28.8125C330.609 28.8125 331.456 29.1641 332.055 29.8672C332.654 30.5703 332.953 31.5469 332.953 32.7969V33.4922ZM331.203 32.2109C331.198 31.5599 331.044 31.0547 330.742 30.6953C330.44 30.3307 330.023 30.1484 329.492 30.1484C328.971 30.1484 328.529 30.3385 328.164 30.7188C327.805 31.099 327.583 31.5964 327.5 32.2109H331.203ZM331.938 27.5938H330.688L329.43 25.9453L328.203 27.5938H326.992L328.742 25.0312H330.18L331.938 27.5938ZM341.805 37H339.992V32.4922C339.992 30.9974 339.464 30.25 338.406 30.25C337.854 30.25 337.398 30.4583 337.039 30.875C336.68 31.2865 336.5 31.8073 336.5 32.4375V37H334.68V29H336.5V30.3281H336.531C337.13 29.3177 337.995 28.8125 339.125 28.8125C339.995 28.8125 340.659 29.0964 341.117 29.6641C341.576 30.2266 341.805 31.0417 341.805 32.1094V37ZM349.75 36.6328C349.109 37.0026 348.352 37.1875 347.477 37.1875C346.289 37.1875 345.331 36.8177 344.602 36.0781C343.872 35.3333 343.508 34.3698 343.508 33.1875C343.508 31.8698 343.898 30.8125 344.68 30.0156C345.466 29.2135 346.516 28.8125 347.828 28.8125C348.557 28.8125 349.201 28.9401 349.758 29.1953V30.8828C349.201 30.4661 348.607 30.2578 347.977 30.2578C347.211 30.2578 346.583 30.5182 346.094 31.0391C345.604 31.5547 345.359 32.2318 345.359 33.0703C345.359 33.8984 345.589 34.5521 346.047 35.0312C346.51 35.5104 347.13 35.75 347.906 35.75C348.557 35.75 349.172 35.5182 349.75 35.0547V36.6328ZM352.469 27.3203C352.172 27.3203 351.917 27.224 351.703 27.0312C351.495 26.8385 351.391 26.5938 351.391 26.2969C351.391 26 351.495 25.7526 351.703 25.5547C351.917 25.3568 352.172 25.2578 352.469 25.2578C352.776 25.2578 353.036 25.3568 353.25 25.5547C353.464 25.7526 353.57 26 353.57 26.2969C353.57 26.5781 353.464 26.8203 353.25 27.0234C353.036 27.2214 352.776 27.3203 352.469 27.3203ZM353.367 37H351.555V29H353.367V37ZM361.883 37H360.125V35.75H360.094C359.542 36.7083 358.732 37.1875 357.664 37.1875C356.878 37.1875 356.26 36.974 355.812 36.5469C355.37 36.1198 355.148 35.5547 355.148 34.8516C355.148 33.3411 356.018 32.4609 357.758 32.2109L360.133 31.875C360.133 30.7344 359.591 30.1641 358.508 30.1641C357.555 30.1641 356.695 30.4922 355.93 31.1484V29.5625C356.773 29.0625 357.747 28.8125 358.852 28.8125C360.872 28.8125 361.883 29.8073 361.883 31.7969V37ZM360.133 33.0703L358.453 33.3047C357.932 33.3724 357.539 33.5 357.273 33.6875C357.013 33.8698 356.883 34.1927 356.883 34.6562C356.883 34.9948 357.003 35.2734 357.242 35.4922C357.487 35.7057 357.812 35.8125 358.219 35.8125C358.771 35.8125 359.227 35.6198 359.586 35.2344C359.951 34.8438 360.133 34.3542 360.133 33.7656V33.0703ZM222 58.1875C220.385 58.1875 219.091 57.6641 218.117 56.6172C217.148 55.5703 216.664 54.2083 216.664 52.5312C216.664 50.7292 217.159 49.2917 218.148 48.2188C219.138 47.1458 220.482 46.6094 222.18 46.6094C223.753 46.6094 225.018 47.1302 225.977 48.1719C226.94 49.2135 227.422 50.5755 227.422 52.2578C227.422 54.0859 226.93 55.5312 225.945 56.5938C224.961 57.6562 223.646 58.1875 222 58.1875ZM222.086 48.2422C221.06 48.2422 220.224 48.625 219.578 49.3906C218.938 50.1562 218.617 51.1641 218.617 52.4141C218.617 53.6589 218.93 54.6615 219.555 55.4219C220.18 56.1823 220.997 56.5625 222.008 56.5625C223.081 56.5625 223.927 56.2005 224.547 55.4766C225.167 54.7526 225.477 53.7396 225.477 52.4375C225.477 51.099 225.174 50.0651 224.57 49.3359C223.971 48.6068 223.143 48.2422 222.086 48.2422ZM231.117 56.8203H231.086V61.6797H229.273V50H231.086V51.4062H231.117C231.737 50.3438 232.643 49.8125 233.836 49.8125C234.852 49.8125 235.643 50.1693 236.211 50.8828C236.779 51.5964 237.062 52.5547 237.062 53.7578C237.062 55.0911 236.742 56.1589 236.102 56.9609C235.461 57.763 234.586 58.1641 233.477 58.1641C232.456 58.1641 231.669 57.7161 231.117 56.8203ZM231.07 53.6641V54.6562C231.07 55.2396 231.255 55.7344 231.625 56.1406C232 56.5469 232.474 56.75 233.047 56.75C233.719 56.75 234.245 56.4896 234.625 55.9688C235.01 55.4427 235.203 54.7109 235.203 53.7734C235.203 52.987 235.023 52.3724 234.664 51.9297C234.31 51.4818 233.828 51.2578 233.219 51.2578C232.573 51.2578 232.052 51.487 231.656 51.9453C231.266 52.4036 231.07 52.9766 231.07 53.6641ZM245.688 54.4922H240.234C240.255 55.2318 240.482 55.8021 240.914 56.2031C241.352 56.6042 241.951 56.8047 242.711 56.8047C243.565 56.8047 244.349 56.5495 245.062 56.0391V57.5C244.333 57.9583 243.37 58.1875 242.172 58.1875C240.995 58.1875 240.07 57.8255 239.398 57.1016C238.732 56.3724 238.398 55.349 238.398 54.0312C238.398 52.7865 238.766 51.7734 239.5 50.9922C240.24 50.2057 241.156 49.8125 242.25 49.8125C243.344 49.8125 244.19 50.1641 244.789 50.8672C245.388 51.5703 245.688 52.5469 245.688 53.7969V54.4922ZM243.938 53.2109C243.932 52.5599 243.779 52.0547 243.477 51.6953C243.174 51.3307 242.758 51.1484 242.227 51.1484C241.706 51.1484 241.263 51.3385 240.898 51.7188C240.539 52.099 240.318 52.5964 240.234 53.2109H243.938ZM252.055 51.7266C251.836 51.5547 251.521 51.4688 251.109 51.4688C250.573 51.4688 250.125 51.7109 249.766 52.1953C249.406 52.6797 249.227 53.3385 249.227 54.1719V58H247.414V50H249.227V51.6484H249.258C249.435 51.0859 249.706 50.6484 250.07 50.3359C250.44 50.0182 250.852 49.8594 251.305 49.8594C251.633 49.8594 251.883 49.9089 252.055 50.0078V51.7266ZM259.477 58H257.719V56.75H257.688C257.135 57.7083 256.326 58.1875 255.258 58.1875C254.471 58.1875 253.854 57.974 253.406 57.5469C252.964 57.1198 252.742 56.5547 252.742 55.8516C252.742 54.3411 253.612 53.4609 255.352 53.2109L257.727 52.875C257.727 51.7344 257.185 51.1641 256.102 51.1641C255.148 51.1641 254.289 51.4922 253.523 52.1484V50.5625C254.367 50.0625 255.341 49.8125 256.445 49.8125C258.466 49.8125 259.477 50.8073 259.477 52.7969V58ZM257.727 54.0703L256.047 54.3047C255.526 54.3724 255.133 54.5 254.867 54.6875C254.607 54.8698 254.477 55.1927 254.477 55.6562C254.477 55.9948 254.596 56.2734 254.836 56.4922C255.081 56.7057 255.406 56.8125 255.812 56.8125C256.365 56.8125 256.82 56.6198 257.18 56.2344C257.544 55.8438 257.727 55.3542 257.727 54.7656V54.0703ZM267.422 57.6328C266.781 58.0026 266.023 58.1875 265.148 58.1875C263.961 58.1875 263.003 57.8177 262.273 57.0781C261.544 56.3333 261.18 55.3698 261.18 54.1875C261.18 52.8698 261.57 51.8125 262.352 51.0156C263.138 50.2135 264.188 49.8125 265.5 49.8125C266.229 49.8125 266.872 49.9401 267.43 50.1953V51.8828C266.872 51.4661 266.279 51.2578 265.648 51.2578C264.883 51.2578 264.255 51.5182 263.766 52.0391C263.276 52.5547 263.031 53.2318 263.031 54.0703C263.031 54.8984 263.26 55.5521 263.719 56.0312C264.182 56.5104 264.802 56.75 265.578 56.75C266.229 56.75 266.844 56.5182 267.422 56.0547V57.6328ZM270.141 48.3203C269.844 48.3203 269.589 48.224 269.375 48.0312C269.167 47.8385 269.062 47.5938 269.062 47.2969C269.062 47 269.167 46.7526 269.375 46.5547C269.589 46.3568 269.844 46.2578 270.141 46.2578C270.448 46.2578 270.708 46.3568 270.922 46.5547C271.135 46.7526 271.242 47 271.242 47.2969C271.242 47.5781 271.135 47.8203 270.922 48.0234C270.708 48.2214 270.448 48.3203 270.141 48.3203ZM271.039 58H269.227V50H271.039V58ZM276.961 58.1875C275.727 58.1875 274.74 57.8151 274 57.0703C273.266 56.3203 272.898 55.3281 272.898 54.0938C272.898 52.75 273.281 51.7005 274.047 50.9453C274.818 50.1901 275.854 49.8125 277.156 49.8125C278.406 49.8125 279.38 50.1797 280.078 50.9141C280.776 51.6484 281.125 52.6667 281.125 53.9688C281.125 55.2448 280.747 56.2682 279.992 57.0391C279.242 57.8047 278.232 58.1875 276.961 58.1875ZM277.047 51.2578C276.339 51.2578 275.779 51.5052 275.367 52C274.956 52.4948 274.75 53.1771 274.75 54.0469C274.75 54.8854 274.958 55.5469 275.375 56.0312C275.792 56.5104 276.349 56.75 277.047 56.75C277.76 56.75 278.307 56.513 278.688 56.0391C279.073 55.5651 279.266 54.8906 279.266 54.0156C279.266 53.1354 279.073 52.4557 278.688 51.9766C278.307 51.4974 277.76 51.2578 277.047 51.2578ZM290.102 58H288.289V53.4922C288.289 51.9974 287.76 51.25 286.703 51.25C286.151 51.25 285.695 51.4583 285.336 51.875C284.977 52.2865 284.797 52.8073 284.797 53.4375V58H282.977V50H284.797V51.3281H284.828C285.427 50.3177 286.292 49.8125 287.422 49.8125C288.292 49.8125 288.956 50.0964 289.414 50.6641C289.872 51.2266 290.102 52.0417 290.102 53.1094V58ZM298.461 58H296.703V56.75H296.672C296.12 57.7083 295.31 58.1875 294.242 58.1875C293.456 58.1875 292.839 57.974 292.391 57.5469C291.948 57.1198 291.727 56.5547 291.727 55.8516C291.727 54.3411 292.596 53.4609 294.336 53.2109L296.711 52.875C296.711 51.7344 296.169 51.1641 295.086 51.1641C294.133 51.1641 293.273 51.4922 292.508 52.1484V50.5625C293.352 50.0625 294.326 49.8125 295.43 49.8125C297.451 49.8125 298.461 50.8073 298.461 52.7969V58ZM296.711 54.0703L295.031 54.3047C294.51 54.3724 294.117 54.5 293.852 54.6875C293.591 54.8698 293.461 55.1927 293.461 55.6562C293.461 55.9948 293.581 56.2734 293.82 56.4922C294.065 56.7057 294.391 56.8125 294.797 56.8125C295.349 56.8125 295.805 56.6198 296.164 56.2344C296.529 55.8438 296.711 55.3542 296.711 54.7656V54.0703ZM302.5 58H300.68V46.1562H302.5V58Z" fill="#0E4E15"/>
<path d="M359.36 124.176C357.875 124.176 356.682 123.685 355.778 122.704C354.885 121.722 354.438 120.445 354.438 118.873C354.438 117.179 354.895 115.831 355.808 114.83C356.726 113.824 357.968 113.321 359.536 113.321C360.981 113.321 362.148 113.81 363.037 114.786C363.925 115.763 364.37 117.04 364.37 118.617C364.37 120.331 363.916 121.686 363.007 122.682C362.792 122.921 362.563 123.126 362.319 123.297L365.271 125.414H363.037L361.059 123.934C360.542 124.095 359.975 124.176 359.36 124.176ZM359.448 114.435C358.344 114.435 357.448 114.833 356.76 115.628C356.071 116.424 355.727 117.469 355.727 118.763C355.727 120.052 356.062 121.095 356.73 121.891C357.404 122.677 358.281 123.07 359.36 123.07C360.512 123.07 361.42 122.694 362.084 121.942C362.749 121.19 363.081 120.138 363.081 118.785C363.081 117.394 362.758 116.322 362.114 115.57C361.469 114.813 360.581 114.435 359.448 114.435ZM369.753 123.927C369.47 124.083 369.096 124.161 368.632 124.161C367.319 124.161 366.662 123.429 366.662 121.964V117.525H365.373V116.5H366.662V114.669L367.863 114.281V116.5H369.753V117.525H367.863V121.751C367.863 122.254 367.949 122.613 368.12 122.828C368.291 123.043 368.574 123.15 368.969 123.15C369.272 123.15 369.533 123.067 369.753 122.901V123.927ZM377.758 124H376.557V122.726H376.528C375.971 123.692 375.112 124.176 373.95 124.176C373.007 124.176 372.253 123.841 371.687 123.172C371.125 122.499 370.844 121.583 370.844 120.426C370.844 119.186 371.157 118.192 371.782 117.445C372.407 116.698 373.239 116.324 374.279 116.324C375.31 116.324 376.059 116.729 376.528 117.54H376.557V112.896H377.758V124ZM376.557 120.609V119.503C376.557 118.897 376.357 118.385 375.957 117.965C375.556 117.545 375.048 117.335 374.433 117.335C373.701 117.335 373.125 117.604 372.705 118.141C372.285 118.678 372.075 119.42 372.075 120.367C372.075 121.231 372.275 121.915 372.675 122.418C373.081 122.916 373.623 123.165 374.301 123.165C374.97 123.165 375.512 122.923 375.927 122.44C376.347 121.957 376.557 121.346 376.557 120.609ZM391.616 123.561C390.839 123.971 389.873 124.176 388.715 124.176C387.221 124.176 386.025 123.695 385.126 122.733C384.228 121.771 383.779 120.509 383.779 118.946C383.779 117.267 384.284 115.909 385.295 114.874C386.306 113.839 387.587 113.321 389.14 113.321C390.136 113.321 390.961 113.465 391.616 113.753V115.064C390.864 114.645 390.034 114.435 389.125 114.435C387.919 114.435 386.94 114.837 386.188 115.643C385.441 116.449 385.068 117.525 385.068 118.873C385.068 120.152 385.417 121.173 386.115 121.935C386.818 122.691 387.739 123.07 388.876 123.07C389.931 123.07 390.844 122.835 391.616 122.367V123.561ZM396.728 124.176C395.62 124.176 394.733 123.827 394.069 123.128C393.41 122.425 393.081 121.495 393.081 120.338C393.081 119.078 393.425 118.094 394.113 117.386C394.802 116.678 395.732 116.324 396.904 116.324C398.022 116.324 398.894 116.668 399.519 117.357C400.148 118.045 400.463 119 400.463 120.221C400.463 121.417 400.124 122.376 399.445 123.099C398.771 123.817 397.866 124.176 396.728 124.176ZM396.816 117.335C396.044 117.335 395.434 117.599 394.985 118.126C394.536 118.648 394.311 119.371 394.311 120.294C394.311 121.183 394.538 121.883 394.992 122.396C395.446 122.909 396.054 123.165 396.816 123.165C397.592 123.165 398.188 122.914 398.603 122.411C399.023 121.908 399.233 121.192 399.233 120.265C399.233 119.327 399.023 118.604 398.603 118.097C398.188 117.589 397.592 117.335 396.816 117.335ZM408.608 124H407.407V119.723C407.407 118.131 406.826 117.335 405.664 117.335C405.063 117.335 404.565 117.562 404.169 118.016C403.779 118.465 403.583 119.034 403.583 119.723V124H402.382V116.5H403.583V117.745H403.613C404.179 116.798 405 116.324 406.074 116.324C406.894 116.324 407.521 116.59 407.956 117.123C408.391 117.65 408.608 118.414 408.608 119.415V124ZM410.424 123.729V122.44C411.079 122.923 411.799 123.165 412.585 123.165C413.64 123.165 414.167 122.813 414.167 122.11C414.167 121.91 414.121 121.742 414.028 121.605C413.94 121.463 413.818 121.339 413.662 121.231C413.51 121.124 413.33 121.029 413.12 120.946C412.915 120.858 412.692 120.768 412.453 120.675C412.121 120.543 411.828 120.411 411.574 120.279C411.325 120.143 411.115 119.991 410.944 119.825C410.778 119.654 410.651 119.461 410.563 119.247C410.48 119.032 410.439 118.78 410.439 118.492C410.439 118.141 410.52 117.831 410.681 117.562C410.842 117.289 411.057 117.062 411.325 116.881C411.594 116.695 411.899 116.556 412.241 116.463C412.587 116.371 412.944 116.324 413.31 116.324C413.959 116.324 414.541 116.437 415.053 116.661V117.877C414.501 117.516 413.867 117.335 413.149 117.335C412.924 117.335 412.722 117.362 412.541 117.416C412.36 117.464 412.204 117.535 412.072 117.628C411.945 117.721 411.845 117.833 411.772 117.965C411.704 118.092 411.669 118.233 411.669 118.39C411.669 118.585 411.704 118.749 411.772 118.88C411.845 119.012 411.95 119.129 412.087 119.232C412.224 119.334 412.39 119.427 412.585 119.51C412.78 119.593 413.002 119.684 413.251 119.781C413.583 119.908 413.881 120.04 414.145 120.177C414.409 120.309 414.633 120.46 414.819 120.631C415.004 120.797 415.146 120.99 415.244 121.209C415.346 121.429 415.397 121.69 415.397 121.993C415.397 122.364 415.314 122.687 415.148 122.96C414.987 123.233 414.77 123.46 414.497 123.641C414.223 123.822 413.908 123.956 413.552 124.044C413.195 124.132 412.822 124.176 412.431 124.176C411.66 124.176 410.991 124.027 410.424 123.729ZM423.315 124H422.114V122.813H422.084C421.586 123.722 420.815 124.176 419.77 124.176C417.983 124.176 417.089 123.111 417.089 120.982V116.5H418.283V120.792C418.283 122.374 418.889 123.165 420.1 123.165C420.686 123.165 421.167 122.95 421.542 122.521C421.923 122.086 422.114 121.52 422.114 120.821V116.5H423.315V124ZM426.948 124H425.747V112.896H426.948V124ZM432.858 123.927C432.575 124.083 432.202 124.161 431.738 124.161C430.424 124.161 429.768 123.429 429.768 121.964V117.525H428.479V116.5H429.768V114.669L430.969 114.281V116.5H432.858V117.525H430.969V121.751C430.969 122.254 431.054 122.613 431.225 122.828C431.396 123.043 431.679 123.15 432.075 123.15C432.377 123.15 432.639 123.067 432.858 122.901V123.927ZM439.831 124H438.63V122.828H438.601C438.078 123.727 437.309 124.176 436.293 124.176C435.546 124.176 434.96 123.978 434.536 123.583C434.116 123.187 433.906 122.662 433.906 122.008C433.906 120.606 434.731 119.791 436.381 119.562L438.63 119.247C438.63 117.972 438.115 117.335 437.084 117.335C436.181 117.335 435.366 117.643 434.638 118.258V117.027C435.375 116.559 436.225 116.324 437.187 116.324C438.95 116.324 439.831 117.257 439.831 119.122V124ZM438.63 120.206L436.821 120.455C436.264 120.533 435.844 120.672 435.561 120.873C435.278 121.068 435.136 121.417 435.136 121.92C435.136 122.286 435.266 122.586 435.524 122.821C435.788 123.05 436.137 123.165 436.572 123.165C437.167 123.165 437.658 122.958 438.044 122.542C438.435 122.123 438.63 121.593 438.63 120.953V120.206ZM441.64 123.729V122.44C442.294 122.923 443.015 123.165 443.801 123.165C444.855 123.165 445.383 122.813 445.383 122.11C445.383 121.91 445.336 121.742 445.244 121.605C445.156 121.463 445.034 121.339 444.877 121.231C444.726 121.124 444.545 121.029 444.335 120.946C444.13 120.858 443.908 120.768 443.669 120.675C443.337 120.543 443.044 120.411 442.79 120.279C442.541 120.143 442.331 119.991 442.16 119.825C441.994 119.654 441.867 119.461 441.779 119.247C441.696 119.032 441.655 118.78 441.655 118.492C441.655 118.141 441.735 117.831 441.896 117.562C442.058 117.289 442.272 117.062 442.541 116.881C442.81 116.695 443.115 116.556 443.457 116.463C443.803 116.371 444.16 116.324 444.526 116.324C445.175 116.324 445.756 116.437 446.269 116.661V117.877C445.717 117.516 445.083 117.335 444.365 117.335C444.14 117.335 443.938 117.362 443.757 117.416C443.576 117.464 443.42 117.535 443.288 117.628C443.161 117.721 443.061 117.833 442.988 117.965C442.919 118.092 442.885 118.233 442.885 118.39C442.885 118.585 442.919 118.749 442.988 118.88C443.061 119.012 443.166 119.129 443.303 119.232C443.439 119.334 443.605 119.427 443.801 119.51C443.996 119.593 444.218 119.684 444.467 119.781C444.799 119.908 445.097 120.04 445.361 120.177C445.625 120.309 445.849 120.46 446.035 120.631C446.22 120.797 446.362 120.99 446.459 121.209C446.562 121.429 446.613 121.69 446.613 121.993C446.613 122.364 446.53 122.687 446.364 122.96C446.203 123.233 445.986 123.46 445.712 123.641C445.439 123.822 445.124 123.956 444.768 124.044C444.411 124.132 444.038 124.176 443.647 124.176C442.875 124.176 442.207 124.027 441.64 123.729Z" fill="black"/>
<path d="M549.876 124.176C548.392 124.176 547.198 123.685 546.295 122.704C545.401 121.722 544.955 120.445 544.955 118.873C544.955 117.179 545.411 115.831 546.324 114.83C547.242 113.824 548.485 113.321 550.052 113.321C551.498 113.321 552.665 113.81 553.553 114.786C554.442 115.763 554.886 117.04 554.886 118.617C554.886 120.331 554.432 121.686 553.524 122.682C553.309 122.921 553.08 123.126 552.835 123.297L555.787 125.414H553.553L551.576 123.934C551.058 124.095 550.492 124.176 549.876 124.176ZM549.964 114.435C548.861 114.435 547.965 114.833 547.276 115.628C546.588 116.424 546.244 117.469 546.244 118.763C546.244 120.052 546.578 121.095 547.247 121.891C547.921 122.677 548.797 123.07 549.876 123.07C551.029 123.07 551.937 122.694 552.601 121.942C553.265 121.19 553.597 120.138 553.597 118.785C553.597 117.394 553.275 116.322 552.63 115.57C551.986 114.813 551.097 114.435 549.964 114.435ZM560.27 123.927C559.986 124.083 559.613 124.161 559.149 124.161C557.835 124.161 557.179 123.429 557.179 121.964V117.525H555.89V116.5H557.179V114.669L558.38 114.281V116.5H560.27V117.525H558.38V121.751C558.38 122.254 558.465 122.613 558.636 122.828C558.807 123.043 559.09 123.15 559.486 123.15C559.789 123.15 560.05 123.067 560.27 122.901V123.927ZM568.275 124H567.074V122.726H567.044C566.488 123.692 565.628 124.176 564.466 124.176C563.524 124.176 562.77 123.841 562.203 123.172C561.642 122.499 561.361 121.583 561.361 120.426C561.361 119.186 561.673 118.192 562.298 117.445C562.923 116.698 563.756 116.324 564.796 116.324C565.826 116.324 566.576 116.729 567.044 117.54H567.074V112.896H568.275V124ZM567.074 120.609V119.503C567.074 118.897 566.874 118.385 566.473 117.965C566.073 117.545 565.565 117.335 564.95 117.335C564.217 117.335 563.641 117.604 563.221 118.141C562.801 118.678 562.591 119.42 562.591 120.367C562.591 121.231 562.792 121.915 563.192 122.418C563.597 122.916 564.139 123.165 564.818 123.165C565.487 123.165 566.029 122.923 566.444 122.44C566.864 121.957 567.074 121.346 567.074 120.609ZM576.214 120.03V124H574.984V113.497H577.87C578.993 113.497 579.862 113.771 580.477 114.317C581.097 114.864 581.407 115.636 581.407 116.632C581.407 117.628 581.063 118.443 580.375 119.078C579.691 119.713 578.766 120.03 577.599 120.03H576.214ZM576.214 114.61V118.917H577.503C578.353 118.917 579 118.724 579.444 118.338C579.894 117.948 580.118 117.398 580.118 116.69C580.118 115.304 579.298 114.61 577.657 114.61H576.214ZM587.142 117.716C586.932 117.555 586.629 117.474 586.234 117.474C585.721 117.474 585.292 117.716 584.945 118.199C584.603 118.683 584.432 119.342 584.432 120.177V124H583.231V116.5H584.432V118.045H584.461C584.632 117.518 584.894 117.108 585.245 116.815C585.597 116.517 585.99 116.368 586.424 116.368C586.737 116.368 586.976 116.402 587.142 116.471V117.716ZM594.474 120.55H589.178C589.198 121.385 589.422 122.03 589.852 122.484C590.282 122.938 590.873 123.165 591.625 123.165C592.469 123.165 593.246 122.887 593.954 122.33V123.458C593.294 123.937 592.423 124.176 591.339 124.176C590.279 124.176 589.447 123.836 588.841 123.158C588.236 122.474 587.933 121.515 587.933 120.279C587.933 119.112 588.263 118.163 588.922 117.43C589.586 116.693 590.409 116.324 591.39 116.324C592.372 116.324 593.131 116.642 593.668 117.276C594.205 117.911 594.474 118.792 594.474 119.92V120.55ZM593.243 119.532C593.238 118.839 593.07 118.299 592.738 117.914C592.411 117.528 591.954 117.335 591.368 117.335C590.802 117.335 590.321 117.538 589.925 117.943C589.53 118.348 589.286 118.878 589.193 119.532H593.243ZM595.843 123.729V122.44C596.498 122.923 597.218 123.165 598.004 123.165C599.059 123.165 599.586 122.813 599.586 122.11C599.586 121.91 599.54 121.742 599.447 121.605C599.359 121.463 599.237 121.339 599.081 121.231C598.929 121.124 598.749 121.029 598.539 120.946C598.333 120.858 598.111 120.768 597.872 120.675C597.54 120.543 597.247 120.411 596.993 120.279C596.744 120.143 596.534 119.991 596.363 119.825C596.197 119.654 596.07 119.461 595.982 119.247C595.899 119.032 595.858 118.78 595.858 118.492C595.858 118.141 595.938 117.831 596.1 117.562C596.261 117.289 596.476 117.062 596.744 116.881C597.013 116.695 597.318 116.556 597.66 116.463C598.006 116.371 598.363 116.324 598.729 116.324C599.378 116.324 599.959 116.437 600.472 116.661V117.877C599.92 117.516 599.286 117.335 598.568 117.335C598.343 117.335 598.141 117.362 597.96 117.416C597.779 117.464 597.623 117.535 597.491 117.628C597.364 117.721 597.264 117.833 597.191 117.965C597.123 118.092 597.088 118.233 597.088 118.39C597.088 118.585 597.123 118.749 597.191 118.88C597.264 119.012 597.369 119.129 597.506 119.232C597.643 119.334 597.809 119.427 598.004 119.51C598.199 119.593 598.421 119.684 598.67 119.781C599.002 119.908 599.3 120.04 599.564 120.177C599.828 120.309 600.052 120.46 600.238 120.631C600.423 120.797 600.565 120.99 600.663 121.209C600.765 121.429 600.816 121.69 600.816 121.993C600.816 122.364 600.733 122.687 600.567 122.96C600.406 123.233 600.189 123.46 599.916 123.641C599.642 123.822 599.327 123.956 598.971 124.044C598.614 124.132 598.241 124.176 597.85 124.176C597.079 124.176 596.41 124.027 595.843 123.729ZM608.697 120.55H603.402C603.421 121.385 603.646 122.03 604.076 122.484C604.505 122.938 605.096 123.165 605.848 123.165C606.693 123.165 607.469 122.887 608.177 122.33V123.458C607.518 123.937 606.646 124.176 605.562 124.176C604.503 124.176 603.67 123.836 603.065 123.158C602.459 122.474 602.157 121.515 602.157 120.279C602.157 119.112 602.486 118.163 603.146 117.43C603.81 116.693 604.632 116.324 605.614 116.324C606.595 116.324 607.354 116.642 607.892 117.276C608.429 117.911 608.697 118.792 608.697 119.92V120.55ZM607.467 119.532C607.462 118.839 607.293 118.299 606.961 117.914C606.634 117.528 606.178 117.335 605.592 117.335C605.025 117.335 604.544 117.538 604.149 117.943C603.753 118.348 603.509 118.878 603.417 119.532H607.467ZM616.747 124H615.545V119.723C615.545 118.131 614.964 117.335 613.802 117.335C613.202 117.335 612.704 117.562 612.308 118.016C611.917 118.465 611.722 119.034 611.722 119.723V124H610.521V116.5H611.722V117.745H611.751C612.318 116.798 613.138 116.324 614.212 116.324C615.033 116.324 615.66 116.59 616.095 117.123C616.529 117.65 616.747 118.414 616.747 119.415V124ZM624.129 123.656C623.553 124.002 622.87 124.176 622.079 124.176C621.009 124.176 620.145 123.829 619.486 123.136C618.832 122.438 618.504 121.534 618.504 120.426C618.504 119.19 618.858 118.199 619.566 117.452C620.274 116.7 621.219 116.324 622.401 116.324C623.06 116.324 623.641 116.446 624.144 116.69V117.921C623.587 117.53 622.992 117.335 622.357 117.335C621.59 117.335 620.96 117.611 620.467 118.163C619.979 118.709 619.735 119.43 619.735 120.323C619.735 121.202 619.964 121.896 620.423 122.403C620.887 122.911 621.507 123.165 622.284 123.165C622.938 123.165 623.553 122.948 624.129 122.513V123.656ZM623.5 125.875C623.5 126.734 622.828 127.164 621.485 127.164C621.3 127.164 621.141 127.159 621.009 127.149V126.49C621.219 126.52 621.39 126.534 621.522 126.534C622.21 126.534 622.555 126.314 622.555 125.875C622.555 125.494 622.24 125.304 621.61 125.304C621.561 125.304 621.461 125.313 621.31 125.333V124H622.101V124.762C622.53 124.762 622.87 124.859 623.119 125.055C623.373 125.25 623.5 125.523 623.5 125.875ZM631.314 124H630.113V122.828H630.084C629.562 123.727 628.792 124.176 627.777 124.176C627.03 124.176 626.444 123.978 626.019 123.583C625.599 123.187 625.389 122.662 625.389 122.008C625.389 120.606 626.214 119.791 627.865 119.562L630.113 119.247C630.113 117.972 629.598 117.335 628.568 117.335C627.665 117.335 626.849 117.643 626.122 118.258V117.027C626.859 116.559 627.708 116.324 628.67 116.324C630.433 116.324 631.314 117.257 631.314 119.122V124ZM630.113 120.206L628.304 120.455C627.748 120.533 627.328 120.672 627.044 120.873C626.761 121.068 626.62 121.417 626.62 121.92C626.62 122.286 626.749 122.586 627.008 122.821C627.271 123.05 627.621 123.165 628.055 123.165C628.651 123.165 629.142 122.958 629.527 122.542C629.918 122.123 630.113 121.593 630.113 120.953V120.206ZM633.124 123.729V122.44C633.778 122.923 634.498 123.165 635.284 123.165C636.339 123.165 636.866 122.813 636.866 122.11C636.866 121.91 636.82 121.742 636.727 121.605C636.639 121.463 636.517 121.339 636.361 121.231C636.209 121.124 636.029 121.029 635.819 120.946C635.614 120.858 635.392 120.768 635.152 120.675C634.82 120.543 634.527 120.411 634.273 120.279C634.024 120.143 633.814 119.991 633.644 119.825C633.478 119.654 633.351 119.461 633.263 119.247C633.18 119.032 633.138 118.78 633.138 118.492C633.138 118.141 633.219 117.831 633.38 117.562C633.541 117.289 633.756 117.062 634.024 116.881C634.293 116.695 634.598 116.556 634.94 116.463C635.287 116.371 635.643 116.324 636.009 116.324C636.659 116.324 637.24 116.437 637.752 116.661V117.877C637.201 117.516 636.566 117.335 635.848 117.335C635.624 117.335 635.421 117.362 635.24 117.416C635.06 117.464 634.903 117.535 634.771 117.628C634.645 117.721 634.544 117.833 634.471 117.965C634.403 118.092 634.369 118.233 634.369 118.39C634.369 118.585 634.403 118.749 634.471 118.88C634.544 119.012 634.649 119.129 634.786 119.232C634.923 119.334 635.089 119.427 635.284 119.51C635.479 119.593 635.702 119.684 635.951 119.781C636.283 119.908 636.581 120.04 636.844 120.177C637.108 120.309 637.333 120.46 637.518 120.631C637.704 120.797 637.845 120.99 637.943 121.209C638.045 121.429 638.097 121.69 638.097 121.993C638.097 122.364 638.014 122.687 637.848 122.96C637.687 123.233 637.469 123.46 637.196 123.641C636.922 123.822 636.607 123.956 636.251 124.044C635.895 124.132 635.521 124.176 635.13 124.176C634.359 124.176 633.69 124.027 633.124 123.729Z" fill="black"/>
<path d="M760.858 124.176C759.374 124.176 758.18 123.685 757.277 122.704C756.383 121.722 755.937 120.445 755.937 118.873C755.937 117.179 756.393 115.831 757.306 114.83C758.224 113.824 759.467 113.321 761.034 113.321C762.479 113.321 763.646 113.81 764.535 114.786C765.424 115.763 765.868 117.04 765.868 118.617C765.868 120.331 765.414 121.686 764.506 122.682C764.291 122.921 764.062 123.126 763.817 123.297L766.769 125.414H764.535L762.558 123.934C762.04 124.095 761.474 124.176 760.858 124.176ZM760.946 114.435C759.843 114.435 758.947 114.833 758.258 115.628C757.57 116.424 757.226 117.469 757.226 118.763C757.226 120.052 757.56 121.095 758.229 121.891C758.903 122.677 759.779 123.07 760.858 123.07C762.011 123.07 762.919 122.694 763.583 121.942C764.247 121.19 764.579 120.138 764.579 118.785C764.579 117.394 764.257 116.322 763.612 115.57C762.968 114.813 762.079 114.435 760.946 114.435ZM771.251 123.927C770.968 124.083 770.595 124.161 770.131 124.161C768.817 124.161 768.161 123.429 768.161 121.964V117.525H766.872V116.5H768.161V114.669L769.362 114.281V116.5H771.251V117.525H769.362V121.751C769.362 122.254 769.447 122.613 769.618 122.828C769.789 123.043 770.072 123.15 770.468 123.15C770.771 123.15 771.032 123.067 771.251 122.901V123.927ZM779.257 124H778.056V122.726H778.026C777.47 123.692 776.61 124.176 775.448 124.176C774.506 124.176 773.751 123.841 773.185 123.172C772.624 122.499 772.343 121.583 772.343 120.426C772.343 119.186 772.655 118.192 773.28 117.445C773.905 116.698 774.738 116.324 775.778 116.324C776.808 116.324 777.558 116.729 778.026 117.54H778.056V112.896H779.257V124ZM778.056 120.609V119.503C778.056 118.897 777.855 118.385 777.455 117.965C777.055 117.545 776.547 117.335 775.932 117.335C775.199 117.335 774.623 117.604 774.203 118.141C773.783 118.678 773.573 119.42 773.573 120.367C773.573 121.231 773.773 121.915 774.174 122.418C774.579 122.916 775.121 123.165 775.8 123.165C776.469 123.165 777.011 122.923 777.426 122.44C777.846 121.957 778.056 121.346 778.056 120.609ZM791.298 114.61H787.196V118.243H790.99V119.349H787.196V124H785.966V113.497H791.298V114.61ZM797.985 124H796.784V122.828H796.754C796.232 123.727 795.463 124.176 794.447 124.176C793.7 124.176 793.114 123.978 792.689 123.583C792.27 123.187 792.06 122.662 792.06 122.008C792.06 120.606 792.885 119.791 794.535 119.562L796.784 119.247C796.784 117.972 796.269 117.335 795.238 117.335C794.335 117.335 793.52 117.643 792.792 118.258V117.027C793.529 116.559 794.379 116.324 795.341 116.324C797.104 116.324 797.985 117.257 797.985 119.122V124ZM796.784 120.206L794.975 120.455C794.418 120.533 793.998 120.672 793.715 120.873C793.432 121.068 793.29 121.417 793.29 121.92C793.29 122.286 793.419 122.586 793.678 122.821C793.942 123.05 794.291 123.165 794.726 123.165C795.321 123.165 795.812 122.958 796.198 122.542C796.588 122.123 796.784 121.593 796.784 120.953V120.206ZM801.449 124H800.248V112.896H801.449V124ZM807.36 123.927C807.077 124.083 806.703 124.161 806.239 124.161C804.926 124.161 804.269 123.429 804.269 121.964V117.525H802.98V116.5H804.269V114.669L805.47 114.281V116.5H807.36V117.525H805.47V121.751C805.47 122.254 805.556 122.613 805.727 122.828C805.897 123.043 806.181 123.15 806.576 123.15C806.879 123.15 807.14 123.067 807.36 122.901V123.927ZM814.333 124H813.131V122.828H813.102C812.58 123.727 811.811 124.176 810.795 124.176C810.048 124.176 809.462 123.978 809.037 123.583C808.617 123.187 808.407 122.662 808.407 122.008C808.407 120.606 809.232 119.791 810.883 119.562L813.131 119.247C813.131 117.972 812.616 117.335 811.586 117.335C810.683 117.335 809.867 117.643 809.14 118.258V117.027C809.877 116.559 810.727 116.324 811.688 116.324C813.451 116.324 814.333 117.257 814.333 119.122V124ZM813.131 120.206L811.322 120.455C810.766 120.533 810.346 120.672 810.062 120.873C809.779 121.068 809.638 121.417 809.638 121.92C809.638 122.286 809.767 122.586 810.026 122.821C810.29 123.05 810.639 123.165 811.073 123.165C811.669 123.165 812.16 122.958 812.545 122.542C812.936 122.123 813.131 121.593 813.131 120.953V120.206ZM816.142 123.729V122.44C816.796 122.923 817.516 123.165 818.302 123.165C819.357 123.165 819.884 122.813 819.884 122.11C819.884 121.91 819.838 121.742 819.745 121.605C819.657 121.463 819.535 121.339 819.379 121.231C819.228 121.124 819.047 121.029 818.837 120.946C818.632 120.858 818.41 120.768 818.17 120.675C817.838 120.543 817.545 120.411 817.292 120.279C817.042 120.143 816.833 119.991 816.662 119.825C816.496 119.654 816.369 119.461 816.281 119.247C816.198 119.032 816.156 118.78 816.156 118.492C816.156 118.141 816.237 117.831 816.398 117.562C816.559 117.289 816.774 117.062 817.042 116.881C817.311 116.695 817.616 116.556 817.958 116.463C818.305 116.371 818.661 116.324 819.027 116.324C819.677 116.324 820.258 116.437 820.771 116.661V117.877C820.219 117.516 819.584 117.335 818.866 117.335C818.642 117.335 818.439 117.362 818.258 117.416C818.078 117.464 817.921 117.535 817.79 117.628C817.663 117.721 817.562 117.833 817.489 117.965C817.421 118.092 817.387 118.233 817.387 118.39C817.387 118.585 817.421 118.749 817.489 118.88C817.562 119.012 817.667 119.129 817.804 119.232C817.941 119.334 818.107 119.427 818.302 119.51C818.498 119.593 818.72 119.684 818.969 119.781C819.301 119.908 819.599 120.04 819.862 120.177C820.126 120.309 820.351 120.46 820.536 120.631C820.722 120.797 820.863 120.99 820.961 121.209C821.063 121.429 821.115 121.69 821.115 121.993C821.115 122.364 821.032 122.687 820.866 122.96C820.705 123.233 820.487 123.46 820.214 123.641C819.94 123.822 819.625 123.956 819.269 124.044C818.913 124.132 818.539 124.176 818.148 124.176C817.377 124.176 816.708 124.027 816.142 123.729Z" fill="black"/>
<path d="M958.682 118.763C957.959 118.763 957.383 118.526 956.953 118.053C956.523 117.574 956.309 116.937 956.309 116.141C956.309 115.272 956.536 114.588 956.99 114.09C957.444 113.587 958.057 113.336 958.828 113.336C959.575 113.336 960.154 113.568 960.564 114.032C960.979 114.496 961.187 115.147 961.187 115.987C961.187 116.827 960.955 117.501 960.491 118.009C960.032 118.512 959.429 118.763 958.682 118.763ZM958.784 114.142C958.32 114.142 957.954 114.315 957.686 114.662C957.417 115.003 957.283 115.475 957.283 116.075C957.283 116.666 957.415 117.127 957.678 117.459C957.942 117.787 958.301 117.95 958.755 117.95C959.214 117.95 959.573 117.779 959.832 117.438C960.09 117.096 960.22 116.622 960.22 116.017C960.22 115.426 960.09 114.967 959.832 114.64C959.578 114.308 959.229 114.142 958.784 114.142ZM965.713 113.497L958.975 124.073H957.927L964.658 113.497H965.713ZM964.937 124.161C964.214 124.161 963.638 123.922 963.208 123.443C962.778 122.965 962.563 122.33 962.563 121.539C962.563 120.67 962.793 119.984 963.252 119.481C963.711 118.973 964.321 118.719 965.083 118.719C965.825 118.719 966.404 118.954 966.819 119.422C967.234 119.891 967.441 120.548 967.441 121.393C967.441 122.228 967.209 122.899 966.746 123.407C966.287 123.91 965.684 124.161 964.937 124.161ZM965.039 119.547C964.57 119.547 964.202 119.718 963.933 120.06C963.669 120.401 963.538 120.875 963.538 121.48C963.538 122.062 963.669 122.518 963.933 122.85C964.197 123.177 964.556 123.341 965.01 123.341C965.469 123.341 965.828 123.17 966.086 122.828C966.345 122.481 966.475 122.008 966.475 121.407C966.475 120.812 966.345 120.353 966.086 120.03C965.833 119.708 965.483 119.547 965.039 119.547ZM978.823 114.61H974.722V118.243H978.516V119.349H974.722V124H973.491V113.497H978.823V114.61ZM985.51 124H984.309V122.828H984.28C983.757 123.727 982.988 124.176 981.973 124.176C981.226 124.176 980.64 123.978 980.215 123.583C979.795 123.187 979.585 122.662 979.585 122.008C979.585 120.606 980.41 119.791 982.061 119.562L984.309 119.247C984.309 117.972 983.794 117.335 982.764 117.335C981.86 117.335 981.045 117.643 980.317 118.258V117.027C981.055 116.559 981.904 116.324 982.866 116.324C984.629 116.324 985.51 117.257 985.51 119.122V124ZM984.309 120.206L982.5 120.455C981.943 120.533 981.523 120.672 981.24 120.873C980.957 121.068 980.815 121.417 980.815 121.92C980.815 122.286 980.945 122.586 981.204 122.821C981.467 123.05 981.816 123.165 982.251 123.165C982.847 123.165 983.337 122.958 983.723 122.542C984.114 122.123 984.309 121.593 984.309 120.953V120.206ZM988.975 124H987.773V112.896H988.975V124ZM994.885 123.927C994.602 124.083 994.229 124.161 993.765 124.161C992.451 124.161 991.794 123.429 991.794 121.964V117.525H990.505V116.5H991.794V114.669L992.996 114.281V116.5H994.885V117.525H992.996V121.751C992.996 122.254 993.081 122.613 993.252 122.828C993.423 123.043 993.706 123.15 994.102 123.15C994.404 123.15 994.666 123.067 994.885 122.901V123.927ZM1001.86 124H1000.66V122.828H1000.63C1000.1 123.727 999.336 124.176 998.32 124.176C997.573 124.176 996.987 123.978 996.562 123.583C996.143 123.187 995.933 122.662 995.933 122.008C995.933 120.606 996.758 119.791 998.408 119.562L1000.66 119.247C1000.66 117.972 1000.14 117.335 999.111 117.335C998.208 117.335 997.393 117.643 996.665 118.258V117.027C997.402 116.559 998.252 116.324 999.214 116.324C1000.98 116.324 1001.86 117.257 1001.86 119.122V124ZM1000.66 120.206L998.848 120.455C998.291 120.533 997.871 120.672 997.588 120.873C997.305 121.068 997.163 121.417 997.163 121.92C997.163 122.286 997.292 122.586 997.551 122.821C997.815 123.05 998.164 123.165 998.599 123.165C999.194 123.165 999.685 122.958 1000.07 122.542C1000.46 122.123 1000.66 121.593 1000.66 120.953V120.206ZM1003.67 123.729V122.44C1004.32 122.923 1005.04 123.165 1005.83 123.165C1006.88 123.165 1007.41 122.813 1007.41 122.11C1007.41 121.91 1007.36 121.742 1007.27 121.605C1007.18 121.463 1007.06 121.339 1006.9 121.231C1006.75 121.124 1006.57 121.029 1006.36 120.946C1006.16 120.858 1005.94 120.768 1005.7 120.675C1005.36 120.543 1005.07 120.411 1004.82 120.279C1004.57 120.143 1004.36 119.991 1004.19 119.825C1004.02 119.654 1003.89 119.461 1003.81 119.247C1003.72 119.032 1003.68 118.78 1003.68 118.492C1003.68 118.141 1003.76 117.831 1003.92 117.562C1004.08 117.289 1004.3 117.062 1004.57 116.881C1004.84 116.695 1005.14 116.556 1005.48 116.463C1005.83 116.371 1006.19 116.324 1006.55 116.324C1007.2 116.324 1007.78 116.437 1008.3 116.661V117.877C1007.74 117.516 1007.11 117.335 1006.39 117.335C1006.17 117.335 1005.96 117.362 1005.78 117.416C1005.6 117.464 1005.45 117.535 1005.31 117.628C1005.19 117.721 1005.09 117.833 1005.01 117.965C1004.95 118.092 1004.91 118.233 1004.91 118.39C1004.91 118.585 1004.95 118.749 1005.01 118.88C1005.09 119.012 1005.19 119.129 1005.33 119.232C1005.47 119.334 1005.63 119.427 1005.83 119.51C1006.02 119.593 1006.25 119.684 1006.49 119.781C1006.83 119.908 1007.12 120.04 1007.39 120.177C1007.65 120.309 1007.88 120.46 1008.06 120.631C1008.25 120.797 1008.39 120.99 1008.49 121.209C1008.59 121.429 1008.64 121.69 1008.64 121.993C1008.64 122.364 1008.56 122.687 1008.39 122.96C1008.23 123.233 1008.01 123.46 1007.74 123.641C1007.47 123.822 1007.15 123.956 1006.79 124.044C1006.44 124.132 1006.06 124.176 1005.67 124.176C1004.9 124.176 1004.23 124.027 1003.67 123.729Z" fill="black"/>
<circle cx="86.5" cy="34.5" r="121" fill="#2ECC71" stroke="white" stroke-width="3"/>
<path d="M26.9688 47.4023C25.7422 47.9961 24.1406 48.293 22.1641 48.293C19.5859 48.293 17.5586 47.5352 16.082 46.0195C14.6055 44.5039 13.8672 42.4844 13.8672 39.9609C13.8672 37.2734 14.6953 35.0938 16.3516 33.4219C18.0156 31.75 20.1719 30.9141 22.8203 30.9141C24.4609 30.9141 25.8438 31.1211 26.9688 31.5352V35.1797C25.8438 34.5078 24.5625 34.1719 23.125 34.1719C21.5469 34.1719 20.2734 34.668 19.3047 35.6602C18.3359 36.6523 17.8516 37.9961 17.8516 39.6914C17.8516 41.3164 18.3086 42.6133 19.2227 43.582C20.1367 44.543 21.3672 45.0234 22.9141 45.0234C24.3906 45.0234 25.7422 44.6641 26.9688 43.9453V47.4023ZM40.3164 43.0547H32.4883C32.6133 44.7969 33.7109 45.668 35.7812 45.668C37.1016 45.668 38.2617 45.3555 39.2617 44.7305V47.4023C38.1523 47.9961 36.7109 48.293 34.9375 48.293C33 48.293 31.4961 47.7578 30.4258 46.6875C29.3555 45.6094 28.8203 44.1094 28.8203 42.1875C28.8203 40.1953 29.3984 38.6172 30.5547 37.4531C31.7109 36.2891 33.1328 35.707 34.8203 35.707C36.5703 35.707 37.9219 36.2266 38.875 37.2656C39.8359 38.3047 40.3164 39.7148 40.3164 41.4961V43.0547ZM36.8828 40.7812C36.8828 39.0625 36.1875 38.2031 34.7969 38.2031C34.2031 38.2031 33.6875 38.4492 33.25 38.9414C32.8203 39.4336 32.5586 40.0469 32.4648 40.7812H36.8828ZM54.1094 48H50.418V41.332C50.418 39.4727 49.7539 38.543 48.4258 38.543C47.7852 38.543 47.2578 38.7891 46.8438 39.2812C46.4297 39.7734 46.2227 40.3984 46.2227 41.1562V48H42.5195V36H46.2227V37.8984H46.2695C47.1523 36.4375 48.4375 35.707 50.125 35.707C52.7812 35.707 54.1094 37.3555 54.1094 40.6523V48ZM64.3047 47.8594C63.7578 48.1484 62.9336 48.293 61.832 48.293C59.2227 48.293 57.918 46.9375 57.918 44.2266V38.7305H55.9727V36H57.918V33.4102L61.6094 32.3555V36H64.3047V38.7305H61.6094V43.582C61.6094 44.832 62.1055 45.457 63.0977 45.457C63.4883 45.457 63.8906 45.3438 64.3047 45.1172V47.8594ZM74.2305 39.3398C73.7852 39.0977 73.2656 38.9766 72.6719 38.9766C71.8672 38.9766 71.2383 39.2734 70.7852 39.8672C70.332 40.4531 70.1055 41.2539 70.1055 42.2695V48H66.4023V36H70.1055V38.2266H70.1523C70.7383 36.6016 71.793 35.7891 73.3164 35.7891C73.707 35.7891 74.0117 35.8359 74.2305 35.9297V39.3398ZM81.5898 48.293C79.5898 48.293 78.0156 47.7344 76.8672 46.6172C75.7266 45.4922 75.1562 43.9688 75.1562 42.0469C75.1562 40.0625 75.75 38.5117 76.9375 37.3945C78.125 36.2695 79.7305 35.707 81.7539 35.707C83.7461 35.707 85.3086 36.2695 86.4414 37.3945C87.5742 38.5117 88.1406 39.9922 88.1406 41.8359C88.1406 43.8281 87.5547 45.4023 86.3828 46.5586C85.2188 47.7148 83.6211 48.293 81.5898 48.293ZM81.6836 38.543C80.8086 38.543 80.1289 38.8438 79.6445 39.4453C79.1602 40.0469 78.918 40.8984 78.918 42C78.918 44.3047 79.8477 45.457 81.707 45.457C83.4805 45.457 84.3672 44.2734 84.3672 41.9062C84.3672 39.6641 83.4727 38.543 81.6836 38.543ZM116.688 48H112.949V37.9453C112.949 36.8594 112.996 35.6602 113.09 34.3477H112.996C112.801 35.3789 112.625 36.1211 112.469 36.5742L108.531 48H105.438L101.43 36.6914C101.32 36.3867 101.145 35.6055 100.902 34.3477H100.797C100.898 36.0039 100.949 37.457 100.949 38.707V48H97.5391V31.1953H103.082L106.516 41.1562C106.789 41.9531 106.988 42.7539 107.113 43.5586H107.184C107.395 42.6289 107.617 41.8203 107.852 41.1328L111.285 31.1953H116.688V48ZM130.926 43.0547H123.098C123.223 44.7969 124.32 45.668 126.391 45.668C127.711 45.668 128.871 45.3555 129.871 44.7305V47.4023C128.762 47.9961 127.32 48.293 125.547 48.293C123.609 48.293 122.105 47.7578 121.035 46.6875C119.965 45.6094 119.43 44.1094 119.43 42.1875C119.43 40.1953 120.008 38.6172 121.164 37.4531C122.32 36.2891 123.742 35.707 125.43 35.707C127.18 35.707 128.531 36.2266 129.484 37.2656C130.445 38.3047 130.926 39.7148 130.926 41.4961V43.0547ZM127.492 40.7812C127.492 39.0625 126.797 38.2031 125.406 38.2031C124.812 38.2031 124.297 38.4492 123.859 38.9414C123.43 39.4336 123.168 40.0469 123.074 40.7812H127.492ZM129.379 30.3164L125.711 34.1016H123.039L126.086 30.3164H129.379ZM144.871 48H141.168V46.3477H141.121C140.277 47.6445 139.039 48.293 137.406 48.293C135.906 48.293 134.699 47.7656 133.785 46.7109C132.871 45.6484 132.414 44.168 132.414 42.2695C132.414 40.2852 132.918 38.6953 133.926 37.5C134.934 36.3047 136.254 35.707 137.887 35.707C139.434 35.707 140.512 36.2617 141.121 37.3711H141.168V30.2344H144.871V48ZM141.238 42.1641V41.2617C141.238 40.4805 141.012 39.832 140.559 39.3164C140.105 38.8008 139.516 38.543 138.789 38.543C137.969 38.543 137.328 38.8672 136.867 39.5156C136.406 40.1562 136.176 41.0391 136.176 42.1641C136.176 43.2188 136.398 44.0312 136.844 44.6016C137.289 45.1719 137.906 45.457 138.695 45.457C139.445 45.457 140.055 45.1562 140.523 44.5547C141 43.9531 141.238 43.1562 141.238 42.1641ZM149.863 34.1016C149.238 34.1016 148.727 33.918 148.328 33.5508C147.93 33.1758 147.73 32.7188 147.73 32.1797C147.73 31.625 147.93 31.1719 148.328 30.8203C148.727 30.4688 149.238 30.293 149.863 30.293C150.496 30.293 151.008 30.4688 151.398 30.8203C151.797 31.1719 151.996 31.625 151.996 32.1797C151.996 32.7422 151.797 33.2031 151.398 33.5625C151.008 33.9219 150.496 34.1016 149.863 34.1016ZM151.691 48H147.988V36H151.691V48ZM163.902 47.5664C163.066 48.0508 161.859 48.293 160.281 48.293C158.438 48.293 156.945 47.7344 155.805 46.6172C154.664 45.5 154.094 44.0586 154.094 42.293C154.094 40.2539 154.703 38.6484 155.922 37.4766C157.148 36.2969 158.785 35.707 160.832 35.707C162.246 35.707 163.27 35.8945 163.902 36.2695V39.4102C163.129 38.832 162.266 38.543 161.312 38.543C160.25 38.543 159.406 38.8555 158.781 39.4805C158.164 40.0977 157.855 40.9531 157.855 42.0469C157.855 43.1094 158.152 43.9453 158.746 44.5547C159.34 45.1562 160.156 45.457 161.195 45.457C162.117 45.457 163.02 45.168 163.902 44.5898V47.5664ZM172.059 48.293C170.059 48.293 168.484 47.7344 167.336 46.6172C166.195 45.4922 165.625 43.9688 165.625 42.0469C165.625 40.0625 166.219 38.5117 167.406 37.3945C168.594 36.2695 170.199 35.707 172.223 35.707C174.215 35.707 175.777 36.2695 176.91 37.3945C178.043 38.5117 178.609 39.9922 178.609 41.8359C178.609 43.8281 178.023 45.4023 176.852 46.5586C175.688 47.7148 174.09 48.293 172.059 48.293ZM172.152 38.543C171.277 38.543 170.598 38.8438 170.113 39.4453C169.629 40.0469 169.387 40.8984 169.387 42C169.387 44.3047 170.316 45.457 172.176 45.457C173.949 45.457 174.836 44.2734 174.836 41.9062C174.836 39.6641 173.941 38.543 172.152 38.543ZM18.707 80H14.9219V63.1953H18.707V80ZM33.7656 80H30.0742V73.332C30.0742 71.4727 29.4102 70.543 28.082 70.543C27.4414 70.543 26.9141 70.7891 26.5 71.2812C26.0859 71.7734 25.8789 72.3984 25.8789 73.1562V80H22.1758V68H25.8789V69.8984H25.9258C26.8086 68.4375 28.0938 67.707 29.7812 67.707C32.4375 67.707 33.7656 69.3555 33.7656 72.6523V80ZM43.9609 79.8594C43.4141 80.1484 42.5898 80.293 41.4883 80.293C38.8789 80.293 37.5742 78.9375 37.5742 76.2266V70.7305H35.6289V68H37.5742V65.4102L41.2656 64.3555V68H43.9609V70.7305H41.2656V75.582C41.2656 76.832 41.7617 77.457 42.7539 77.457C43.1445 77.457 43.5469 77.3438 43.9609 77.1172V79.8594ZM56.7461 75.0547H48.918C49.043 76.7969 50.1406 77.668 52.2109 77.668C53.5312 77.668 54.6914 77.3555 55.6914 76.7305V79.4023C54.582 79.9961 53.1406 80.293 51.3672 80.293C49.4297 80.293 47.9258 79.7578 46.8555 78.6875C45.7852 77.6094 45.25 76.1094 45.25 74.1875C45.25 72.1953 45.8281 70.6172 46.9844 69.4531C48.1406 68.2891 49.5625 67.707 51.25 67.707C53 67.707 54.3516 68.2266 55.3047 69.2656C56.2656 70.3047 56.7461 71.7148 56.7461 73.4961V75.0547ZM53.3125 72.7812C53.3125 71.0625 52.6172 70.2031 51.2266 70.2031C50.6328 70.2031 50.1172 70.4492 49.6797 70.9414C49.25 71.4336 48.9883 72.0469 48.8945 72.7812H53.3125ZM70.7148 78.6289C70.7148 80.8555 70.0703 82.5781 68.7812 83.7969C67.4922 85.0234 65.625 85.6367 63.1797 85.6367C61.5625 85.6367 60.2812 85.4062 59.3359 84.9453V81.8281C60.5703 82.5469 61.8164 82.9062 63.0742 82.9062C64.3242 82.9062 65.293 82.5742 65.9805 81.9102C66.668 81.2539 67.0117 80.3594 67.0117 79.2266V78.2773H66.9648C66.1211 79.6211 64.875 80.293 63.2266 80.293C61.6953 80.293 60.4805 79.7539 59.582 78.6758C58.6836 77.5977 58.2344 76.1523 58.2344 74.3398C58.2344 72.3086 58.7344 70.6953 59.7344 69.5C60.7344 68.3047 62.0508 67.707 63.6836 67.707C65.1445 67.707 66.2383 68.2695 66.9648 69.3945H67.0117V68H70.7148V78.6289ZM67.0586 74.2344V73.2852C67.0586 72.5273 66.832 71.8828 66.3789 71.3516C65.9336 70.8125 65.3516 70.543 64.6328 70.543C63.8125 70.543 63.168 70.8633 62.6992 71.5039C62.2305 72.1445 61.9961 73.0469 61.9961 74.2109C61.9961 75.2109 62.2188 76.0039 62.6641 76.5898C63.1094 77.168 63.7188 77.457 64.4922 77.457C65.2578 77.457 65.875 77.1641 66.3438 76.5781C66.8203 75.9844 67.0586 75.2031 67.0586 74.2344ZM81.6367 71.3398C81.1914 71.0977 80.6719 70.9766 80.0781 70.9766C79.2734 70.9766 78.6445 71.2734 78.1914 71.8672C77.7383 72.4531 77.5117 73.2539 77.5117 74.2695V80H73.8086V68H77.5117V70.2266H77.5586C78.1445 68.6016 79.1992 67.7891 80.7227 67.7891C81.1133 67.7891 81.418 67.8359 81.6367 67.9297V71.3398ZM93.3555 80H89.8516V78.2773H89.8047C89 79.6211 87.8086 80.293 86.2305 80.293C85.0664 80.293 84.1484 79.9648 83.4766 79.3086C82.8125 78.6445 82.4805 77.7617 82.4805 76.6602C82.4805 74.332 83.8594 72.9883 86.6172 72.6289L89.875 72.1953C89.875 70.8828 89.1641 70.2266 87.7422 70.2266C86.3125 70.2266 84.9531 70.6523 83.6641 71.5039V68.7148C84.1797 68.4492 84.8828 68.2148 85.7734 68.0117C86.6719 67.8086 87.4883 67.707 88.2227 67.707C91.6445 67.707 93.3555 69.4141 93.3555 72.8281V80ZM89.875 75.125V74.3164L87.6953 74.5977C86.4922 74.7539 85.8906 75.2969 85.8906 76.2266C85.8906 76.6484 86.0352 76.9961 86.3242 77.2695C86.6211 77.5352 87.0195 77.668 87.5195 77.668C88.2148 77.668 88.7812 77.4297 89.2188 76.9531C89.6562 76.4688 89.875 75.8594 89.875 75.125ZM108.027 80H104.324V78.3477H104.277C103.434 79.6445 102.195 80.293 100.562 80.293C99.0625 80.293 97.8555 79.7656 96.9414 78.7109C96.0273 77.6484 95.5703 76.168 95.5703 74.2695C95.5703 72.2852 96.0742 70.6953 97.082 69.5C98.0898 68.3047 99.4102 67.707 101.043 67.707C102.59 67.707 103.668 68.2617 104.277 69.3711H104.324V62.2344H108.027V80ZM104.395 74.1641V73.2617C104.395 72.4805 104.168 71.832 103.715 71.3164C103.262 70.8008 102.672 70.543 101.945 70.543C101.125 70.543 100.484 70.8672 100.023 71.5156C99.5625 72.1562 99.332 73.0391 99.332 74.1641C99.332 75.2188 99.5547 76.0312 100 76.6016C100.445 77.1719 101.062 77.457 101.852 77.457C102.602 77.457 103.211 77.1562 103.68 76.5547C104.156 75.9531 104.395 75.1562 104.395 74.1641ZM116.863 80.293C114.863 80.293 113.289 79.7344 112.141 78.6172C111 77.4922 110.43 75.9688 110.43 74.0469C110.43 72.0625 111.023 70.5117 112.211 69.3945C113.398 68.2695 115.004 67.707 117.027 67.707C119.02 67.707 120.582 68.2695 121.715 69.3945C122.848 70.5117 123.414 71.9922 123.414 73.8359C123.414 75.8281 122.828 77.4023 121.656 78.5586C120.492 79.7148 118.895 80.293 116.863 80.293ZM116.957 70.543C116.082 70.543 115.402 70.8438 114.918 71.4453C114.434 72.0469 114.191 72.8984 114.191 74C114.191 76.3047 115.121 77.457 116.98 77.457C118.754 77.457 119.641 76.2734 119.641 73.9062C119.641 71.6641 118.746 70.543 116.957 70.543Z" fill="#0E4E15"/>
<path d="M1104.9 114.61H1101.86V124H1100.63V114.61H1097.61V113.497H1104.9V114.61ZM1110.95 120.55H1105.66C1105.68 121.385 1105.9 122.03 1106.33 122.484C1106.76 122.938 1107.35 123.165 1108.1 123.165C1108.95 123.165 1109.73 122.887 1110.43 122.33V123.458C1109.77 123.937 1108.9 124.176 1107.82 124.176C1106.76 124.176 1105.93 123.836 1105.32 123.158C1104.72 122.474 1104.41 121.515 1104.41 120.279C1104.41 119.112 1104.74 118.163 1105.4 117.43C1106.07 116.693 1106.89 116.324 1107.87 116.324C1108.85 116.324 1109.61 116.642 1110.15 117.276C1110.68 117.911 1110.95 118.792 1110.95 119.92V120.55ZM1109.72 119.532C1109.72 118.839 1109.55 118.299 1109.22 117.914C1108.89 117.528 1108.43 117.335 1107.85 117.335C1107.28 117.335 1106.8 117.538 1106.4 117.943C1106.01 118.348 1105.77 118.878 1105.67 119.532H1109.72ZM1123.43 124H1122.23V119.693C1122.23 118.863 1122.1 118.263 1121.84 117.892C1121.58 117.521 1121.15 117.335 1120.55 117.335C1120.04 117.335 1119.6 117.569 1119.24 118.038C1118.88 118.507 1118.7 119.068 1118.7 119.723V124H1117.5V119.547C1117.5 118.072 1116.93 117.335 1115.79 117.335C1115.27 117.335 1114.83 117.557 1114.49 118.001C1114.15 118.441 1113.98 119.015 1113.98 119.723V124H1112.78V116.5H1113.98V117.687H1114.01C1114.54 116.778 1115.32 116.324 1116.34 116.324C1116.85 116.324 1117.3 116.468 1117.68 116.756C1118.06 117.04 1118.32 117.413 1118.46 117.877C1119.02 116.842 1119.85 116.324 1120.95 116.324C1122.6 116.324 1123.43 117.342 1123.43 119.378V124ZM1126.93 122.916H1126.9V127.45H1125.7V116.5H1126.9V117.818H1126.93C1127.52 116.822 1128.38 116.324 1129.52 116.324C1130.49 116.324 1131.24 116.661 1131.78 117.335C1132.33 118.004 1132.6 118.902 1132.6 120.03C1132.6 121.285 1132.29 122.291 1131.68 123.048C1131.07 123.8 1130.24 124.176 1129.18 124.176C1128.2 124.176 1127.45 123.756 1126.93 122.916ZM1126.9 119.891V120.938C1126.9 121.559 1127.1 122.086 1127.5 122.521C1127.9 122.95 1128.42 123.165 1129.04 123.165C1129.76 123.165 1130.33 122.887 1130.74 122.33C1131.16 121.773 1131.37 121 1131.37 120.008C1131.37 119.173 1131.17 118.519 1130.79 118.045C1130.4 117.572 1129.88 117.335 1129.22 117.335C1128.52 117.335 1127.96 117.579 1127.54 118.067C1127.11 118.551 1126.9 119.159 1126.9 119.891ZM1137.65 124.176C1136.54 124.176 1135.66 123.827 1134.99 123.128C1134.33 122.425 1134 121.495 1134 120.338C1134 119.078 1134.35 118.094 1135.04 117.386C1135.72 116.678 1136.65 116.324 1137.83 116.324C1138.94 116.324 1139.82 116.668 1140.44 117.357C1141.07 118.045 1141.39 119 1141.39 120.221C1141.39 121.417 1141.05 122.376 1140.37 123.099C1139.69 123.817 1138.79 124.176 1137.65 124.176ZM1137.74 117.335C1136.97 117.335 1136.36 117.599 1135.91 118.126C1135.46 118.648 1135.23 119.371 1135.23 120.294C1135.23 121.183 1135.46 121.883 1135.91 122.396C1136.37 122.909 1136.98 123.165 1137.74 123.165C1138.51 123.165 1139.11 122.914 1139.52 122.411C1139.94 121.908 1140.15 121.192 1140.15 120.265C1140.15 119.327 1139.94 118.604 1139.52 118.097C1139.11 117.589 1138.51 117.335 1137.74 117.335ZM1158.29 124H1157.07V116.954C1157.07 116.397 1157.1 115.716 1157.17 114.911H1157.14C1157.02 115.384 1156.92 115.724 1156.82 115.929L1153.24 124H1152.64L1149.05 115.987C1148.95 115.753 1148.85 115.394 1148.74 114.911H1148.71C1148.75 115.331 1148.77 116.017 1148.77 116.969V124H1147.58V113.497H1149.21L1152.43 120.821C1152.68 121.383 1152.84 121.803 1152.91 122.081H1152.96C1153.17 121.505 1153.34 121.075 1153.46 120.792L1156.75 113.497H1158.29V124ZM1166.92 120.55H1161.63C1161.65 121.385 1161.87 122.03 1162.3 122.484C1162.73 122.938 1163.32 123.165 1164.08 123.165C1164.92 123.165 1165.7 122.887 1166.4 122.33V123.458C1165.75 123.937 1164.87 124.176 1163.79 124.176C1162.73 124.176 1161.9 123.836 1161.29 123.158C1160.69 122.474 1160.38 121.515 1160.38 120.279C1160.38 119.112 1160.71 118.163 1161.37 117.43C1162.04 116.693 1162.86 116.324 1163.84 116.324C1164.82 116.324 1165.58 116.642 1166.12 117.276C1166.66 117.911 1166.92 118.792 1166.92 119.92V120.55ZM1165.69 119.532C1165.69 118.839 1165.52 118.299 1165.19 117.914C1164.86 117.528 1164.41 117.335 1163.82 117.335C1163.25 117.335 1162.77 117.538 1162.38 117.943C1161.98 118.348 1161.74 118.878 1161.64 119.532H1165.69ZM1165.5 112.677L1163.58 115.079H1162.65L1164.29 112.677H1165.5ZM1175.15 124H1173.95V122.726H1173.92C1173.36 123.692 1172.5 124.176 1171.34 124.176C1170.4 124.176 1169.64 123.841 1169.08 123.172C1168.52 122.499 1168.24 121.583 1168.24 120.426C1168.24 119.186 1168.55 118.192 1169.17 117.445C1169.8 116.698 1170.63 116.324 1171.67 116.324C1172.7 116.324 1173.45 116.729 1173.92 117.54H1173.95V112.896H1175.15V124ZM1173.95 120.609V119.503C1173.95 118.897 1173.75 118.385 1173.35 117.965C1172.95 117.545 1172.44 117.335 1171.82 117.335C1171.09 117.335 1170.52 117.604 1170.1 118.141C1169.68 118.678 1169.47 119.42 1169.47 120.367C1169.47 121.231 1169.67 121.915 1170.07 122.418C1170.47 122.916 1171.01 123.165 1171.69 123.165C1172.36 123.165 1172.9 122.923 1173.32 122.44C1173.74 121.957 1173.95 121.346 1173.95 120.609ZM1178.2 114.596C1177.98 114.596 1177.8 114.522 1177.65 114.376C1177.5 114.229 1177.42 114.044 1177.42 113.819C1177.42 113.595 1177.5 113.409 1177.65 113.263C1177.8 113.111 1177.98 113.036 1178.2 113.036C1178.42 113.036 1178.6 113.111 1178.75 113.263C1178.91 113.409 1178.99 113.595 1178.99 113.819C1178.99 114.034 1178.91 114.217 1178.75 114.369C1178.6 114.52 1178.42 114.596 1178.2 114.596ZM1178.78 124H1177.58V116.5H1178.78V124ZM1184.35 124.176C1183.24 124.176 1182.35 123.827 1181.69 123.128C1181.03 122.425 1180.7 121.495 1180.7 120.338C1180.7 119.078 1181.05 118.094 1181.73 117.386C1182.42 116.678 1183.35 116.324 1184.52 116.324C1185.64 116.324 1186.51 116.668 1187.14 117.357C1187.77 118.045 1188.08 119 1188.08 120.221C1188.08 121.417 1187.75 122.376 1187.07 123.099C1186.39 123.817 1185.49 124.176 1184.35 124.176ZM1184.44 117.335C1183.67 117.335 1183.06 117.599 1182.61 118.126C1182.16 118.648 1181.93 119.371 1181.93 120.294C1181.93 121.183 1182.16 121.883 1182.61 122.396C1183.07 122.909 1183.68 123.165 1184.44 123.165C1185.21 123.165 1185.81 122.914 1186.22 122.411C1186.64 121.908 1186.85 121.192 1186.85 120.265C1186.85 119.327 1186.64 118.604 1186.22 118.097C1185.81 117.589 1185.21 117.335 1184.44 117.335ZM1201.43 123.561C1200.65 123.971 1199.69 124.176 1198.53 124.176C1197.03 124.176 1195.84 123.695 1194.94 122.733C1194.04 121.771 1193.59 120.509 1193.59 118.946C1193.59 117.267 1194.1 115.909 1195.11 114.874C1196.12 113.839 1197.4 113.321 1198.95 113.321C1199.95 113.321 1200.77 113.465 1201.43 113.753V115.064C1200.68 114.645 1199.85 114.435 1198.94 114.435C1197.73 114.435 1196.75 114.837 1196 115.643C1195.25 116.449 1194.88 117.525 1194.88 118.873C1194.88 120.152 1195.23 121.173 1195.93 121.935C1196.63 122.691 1197.55 123.07 1198.69 123.07C1199.74 123.07 1200.66 122.835 1201.43 122.367V123.561ZM1206.54 124.176C1205.43 124.176 1204.55 123.827 1203.88 123.128C1203.22 122.425 1202.89 121.495 1202.89 120.338C1202.89 119.078 1203.24 118.094 1203.93 117.386C1204.62 116.678 1205.55 116.324 1206.72 116.324C1207.84 116.324 1208.71 116.668 1209.33 117.357C1209.96 118.045 1210.28 119 1210.28 120.221C1210.28 121.417 1209.94 122.376 1209.26 123.099C1208.58 123.817 1207.68 124.176 1206.54 124.176ZM1206.63 117.335C1205.86 117.335 1205.25 117.599 1204.8 118.126C1204.35 118.648 1204.12 119.371 1204.12 120.294C1204.12 121.183 1204.35 121.883 1204.81 122.396C1205.26 122.909 1205.87 123.165 1206.63 123.165C1207.41 123.165 1208 122.914 1208.42 122.411C1208.84 121.908 1209.05 121.192 1209.05 120.265C1209.05 119.327 1208.84 118.604 1208.42 118.097C1208 117.589 1207.41 117.335 1206.63 117.335ZM1218.42 124H1217.22V119.723C1217.22 118.131 1216.64 117.335 1215.48 117.335C1214.88 117.335 1214.38 117.562 1213.98 118.016C1213.59 118.465 1213.4 119.034 1213.4 119.723V124H1212.2V116.5H1213.4V117.745H1213.43C1213.99 116.798 1214.81 116.324 1215.89 116.324C1216.71 116.324 1217.33 116.59 1217.77 117.123C1218.2 117.65 1218.42 118.414 1218.42 119.415V124ZM1220.24 123.729V122.44C1220.89 122.923 1221.61 123.165 1222.4 123.165C1223.45 123.165 1223.98 122.813 1223.98 122.11C1223.98 121.91 1223.93 121.742 1223.84 121.605C1223.75 121.463 1223.63 121.339 1223.48 121.231C1223.32 121.124 1223.14 121.029 1222.93 120.946C1222.73 120.858 1222.51 120.768 1222.27 120.675C1221.93 120.543 1221.64 120.411 1221.39 120.279C1221.14 120.143 1220.93 119.991 1220.76 119.825C1220.59 119.654 1220.46 119.461 1220.38 119.247C1220.29 119.032 1220.25 118.78 1220.25 118.492C1220.25 118.141 1220.33 117.831 1220.49 117.562C1220.66 117.289 1220.87 117.062 1221.14 116.881C1221.41 116.695 1221.71 116.556 1222.05 116.463C1222.4 116.371 1222.76 116.324 1223.12 116.324C1223.77 116.324 1224.35 116.437 1224.87 116.661V117.877C1224.31 117.516 1223.68 117.335 1222.96 117.335C1222.74 117.335 1222.54 117.362 1222.35 117.416C1222.17 117.464 1222.02 117.535 1221.89 117.628C1221.76 117.721 1221.66 117.833 1221.59 117.965C1221.52 118.092 1221.48 118.233 1221.48 118.39C1221.48 118.585 1221.52 118.749 1221.59 118.88C1221.66 119.012 1221.76 119.129 1221.9 119.232C1222.04 119.334 1222.2 119.427 1222.4 119.51C1222.59 119.593 1222.82 119.684 1223.06 119.781C1223.4 119.908 1223.69 120.04 1223.96 120.177C1224.22 120.309 1224.45 120.46 1224.63 120.631C1224.82 120.797 1224.96 120.99 1225.06 121.209C1225.16 121.429 1225.21 121.69 1225.21 121.993C1225.21 122.364 1225.13 122.687 1224.96 122.96C1224.8 123.233 1224.58 123.46 1224.31 123.641C1224.04 123.822 1223.72 123.956 1223.37 124.044C1223.01 124.132 1222.64 124.176 1222.24 124.176C1221.47 124.176 1220.8 124.027 1220.24 123.729ZM1233.13 124H1231.93V122.813H1231.9C1231.4 123.722 1230.63 124.176 1229.58 124.176C1227.8 124.176 1226.9 123.111 1226.9 120.982V116.5H1228.1V120.792C1228.1 122.374 1228.7 123.165 1229.91 123.165C1230.5 123.165 1230.98 122.95 1231.36 122.521C1231.74 122.086 1231.93 121.52 1231.93 120.821V116.5H1233.13V124ZM1236.76 124H1235.56V112.896H1236.76V124ZM1242.67 123.927C1242.39 124.083 1242.02 124.161 1241.55 124.161C1240.24 124.161 1239.58 123.429 1239.58 121.964V117.525H1238.29V116.5H1239.58V114.669L1240.78 114.281V116.5H1242.67V117.525H1240.78V121.751C1240.78 122.254 1240.87 122.613 1241.04 122.828C1241.21 123.043 1241.49 123.15 1241.89 123.15C1242.19 123.15 1242.45 123.067 1242.67 122.901V123.927ZM1249.64 124H1248.44V122.828H1248.41C1247.89 123.727 1247.12 124.176 1246.11 124.176C1245.36 124.176 1244.77 123.978 1244.35 123.583C1243.93 123.187 1243.72 122.662 1243.72 122.008C1243.72 120.606 1244.54 119.791 1246.19 119.562L1248.44 119.247C1248.44 117.972 1247.93 117.335 1246.9 117.335C1245.99 117.335 1245.18 117.643 1244.45 118.258V117.027C1245.19 116.559 1246.04 116.324 1247 116.324C1248.76 116.324 1249.64 117.257 1249.64 119.122V124ZM1248.44 120.206L1246.63 120.455C1246.08 120.533 1245.66 120.672 1245.37 120.873C1245.09 121.068 1244.95 121.417 1244.95 121.92C1244.95 122.286 1245.08 122.586 1245.34 122.821C1245.6 123.05 1245.95 123.165 1246.39 123.165C1246.98 123.165 1247.47 122.958 1247.86 122.542C1248.25 122.123 1248.44 121.593 1248.44 120.953V120.206ZM1154.69 138.592H1153.98C1152.97 137.439 1152.47 136.019 1152.47 134.329C1152.47 132.633 1152.97 131.189 1153.98 129.998H1154.7C1153.68 131.235 1153.17 132.675 1153.17 134.319C1153.17 135.95 1153.68 137.374 1154.69 138.592ZM1162.86 137H1162.04V132.303C1162.04 131.932 1162.06 131.478 1162.11 130.94H1162.09C1162.01 131.256 1161.94 131.482 1161.88 131.619L1159.49 137H1159.09L1156.7 131.658C1156.63 131.502 1156.56 131.263 1156.49 130.94H1156.47C1156.5 131.22 1156.51 131.678 1156.51 132.312V137H1155.72V129.998H1156.8L1158.95 134.881C1159.12 135.255 1159.22 135.535 1159.27 135.721H1159.3C1159.44 135.337 1159.56 135.05 1159.64 134.861L1161.83 129.998H1162.86V137ZM1165.01 130.73C1164.86 130.73 1164.74 130.682 1164.64 130.584C1164.54 130.486 1164.49 130.363 1164.49 130.213C1164.49 130.063 1164.54 129.939 1164.64 129.842C1164.74 129.741 1164.86 129.69 1165.01 129.69C1165.15 129.69 1165.28 129.741 1165.38 129.842C1165.48 129.939 1165.53 130.063 1165.53 130.213C1165.53 130.356 1165.48 130.478 1165.38 130.579C1165.28 130.68 1165.15 130.73 1165.01 130.73ZM1165.4 137H1164.6V132H1165.4V137ZM1171.17 137H1170.37V134.148C1170.37 133.087 1169.98 132.557 1169.21 132.557C1168.8 132.557 1168.47 132.708 1168.21 133.011C1167.95 133.31 1167.82 133.689 1167.82 134.148V137H1167.02V132H1167.82V132.83H1167.84C1168.22 132.199 1168.76 131.883 1169.48 131.883C1170.03 131.883 1170.44 132.06 1170.73 132.415C1171.02 132.767 1171.17 133.276 1171.17 133.943V137ZM1176.72 137H1175.92V136.209H1175.9C1175.57 136.814 1175.06 137.117 1174.36 137.117C1173.17 137.117 1172.57 136.408 1172.57 134.988V132H1173.37V134.861C1173.37 135.916 1173.77 136.443 1174.58 136.443C1174.97 136.443 1175.29 136.3 1175.54 136.014C1175.8 135.724 1175.92 135.346 1175.92 134.881V132H1176.72V137ZM1180.67 136.951C1180.48 137.055 1180.23 137.107 1179.92 137.107C1179.04 137.107 1178.6 136.619 1178.6 135.643V132.684H1177.75V132H1178.6V130.779L1179.41 130.521V132H1180.67V132.684H1179.41V135.501C1179.41 135.836 1179.46 136.076 1179.58 136.219C1179.69 136.362 1179.88 136.434 1180.14 136.434C1180.34 136.434 1180.52 136.378 1180.67 136.268V136.951ZM1183.82 137.117C1183.09 137.117 1182.49 136.884 1182.05 136.419C1181.61 135.95 1181.39 135.33 1181.39 134.559C1181.39 133.719 1181.62 133.063 1182.08 132.591C1182.54 132.119 1183.16 131.883 1183.94 131.883C1184.69 131.883 1185.27 132.112 1185.68 132.571C1186.1 133.03 1186.31 133.667 1186.31 134.48C1186.31 135.278 1186.09 135.918 1185.64 136.399C1185.19 136.878 1184.58 137.117 1183.82 137.117ZM1183.88 132.557C1183.37 132.557 1182.96 132.732 1182.66 133.084C1182.36 133.432 1182.21 133.914 1182.21 134.529C1182.21 135.122 1182.36 135.589 1182.67 135.931C1182.97 136.272 1183.38 136.443 1183.88 136.443C1184.4 136.443 1184.8 136.276 1185.07 135.94C1185.35 135.605 1185.49 135.128 1185.49 134.51C1185.49 133.885 1185.35 133.403 1185.07 133.064C1184.8 132.726 1184.4 132.557 1183.88 132.557ZM1187.29 136.819V135.96C1187.73 136.282 1188.21 136.443 1188.73 136.443C1189.43 136.443 1189.79 136.209 1189.79 135.74C1189.79 135.607 1189.76 135.494 1189.69 135.403C1189.63 135.309 1189.55 135.226 1189.45 135.154C1189.35 135.083 1189.23 135.019 1189.09 134.964C1188.95 134.905 1188.8 134.845 1188.64 134.783C1188.42 134.695 1188.23 134.607 1188.06 134.52C1187.89 134.428 1187.75 134.327 1187.64 134.217C1187.53 134.103 1187.44 133.974 1187.38 133.831C1187.33 133.688 1187.3 133.52 1187.3 133.328C1187.3 133.094 1187.35 132.887 1187.46 132.708C1187.57 132.526 1187.71 132.374 1187.89 132.254C1188.07 132.13 1188.27 132.037 1188.5 131.976C1188.73 131.914 1188.97 131.883 1189.21 131.883C1189.65 131.883 1190.04 131.958 1190.38 132.107V132.918C1190.01 132.677 1189.59 132.557 1189.11 132.557C1188.96 132.557 1188.82 132.575 1188.7 132.61C1188.58 132.643 1188.48 132.69 1188.39 132.752C1188.31 132.814 1188.24 132.889 1188.19 132.977C1188.14 133.061 1188.12 133.156 1188.12 133.26C1188.12 133.39 1188.14 133.499 1188.19 133.587C1188.24 133.675 1188.31 133.753 1188.4 133.821C1188.49 133.89 1188.6 133.951 1188.73 134.007C1188.86 134.062 1189.01 134.122 1189.18 134.188C1189.4 134.272 1189.6 134.36 1189.77 134.451C1189.95 134.539 1190.1 134.64 1190.22 134.754C1190.34 134.865 1190.44 134.993 1190.5 135.14C1190.57 135.286 1190.61 135.46 1190.61 135.662C1190.61 135.91 1190.55 136.124 1190.44 136.307C1190.33 136.489 1190.19 136.64 1190.01 136.761C1189.82 136.881 1189.61 136.971 1189.38 137.029C1189.14 137.088 1188.89 137.117 1188.63 137.117C1188.11 137.117 1187.67 137.018 1187.29 136.819ZM1192.12 137.107C1191.97 137.107 1191.84 137.054 1191.73 136.946C1191.63 136.839 1191.58 136.71 1191.58 136.561C1191.58 136.411 1191.63 136.282 1191.73 136.175C1191.84 136.064 1191.97 136.009 1192.12 136.009C1192.27 136.009 1192.4 136.064 1192.51 136.175C1192.62 136.282 1192.67 136.411 1192.67 136.561C1192.67 136.71 1192.62 136.839 1192.51 136.946C1192.4 137.054 1192.27 137.107 1192.12 137.107ZM1194.03 138.592H1193.32C1194.33 137.374 1194.84 135.95 1194.84 134.319C1194.84 132.675 1194.33 131.235 1193.31 129.998H1194.03C1195.04 131.189 1195.55 132.633 1195.55 134.329C1195.55 136.019 1195.04 137.439 1194.03 138.592Z" fill="black"/>
<g clip-path="url(#clip1_2002_2)">
<path d="M1263.42 25.5469C1263.42 25.5469 1263.34 25.5469 1263.42 25.5469C1263.34 25.5469 1263.34 25.5469 1263.42 25.5469C1263.19 25.5469 1263.03 25.7813 1262.8 26.1719C1262.56 26.5625 1262.41 26.9531 1262.41 27.1875C1262.41 27.4219 1262.48 27.6563 1262.72 27.8125C1262.87 27.9688 1263.11 28.0469 1263.42 28.0469C1263.73 28.0469 1263.97 27.9688 1264.12 27.8125C1264.28 27.6563 1264.44 27.4219 1264.36 27.1875C1264.36 26.9531 1264.2 26.5625 1263.97 26.1719C1263.73 25.7813 1263.58 25.5469 1263.42 25.5469Z" fill="white"/>
<path d="M1264.83 12.3437L1266.39 10.7812L1268.58 8.59375V6.48438L1264.36 10.7812H1256.08V15C1256.08 16.0938 1256.55 17.1094 1257.33 17.8125L1254.12 21.25V23.3594L1258.58 18.8281L1259.67 17.7344L1264.83 12.3437ZM1257.64 15.0781V12.3437H1262.8L1258.42 16.7188C1257.95 16.3281 1257.64 15.7031 1257.64 15.0781Z" fill="white"/>
<path d="M1268.5 10.7812L1266.94 12.3437H1269.2V15C1269.2 15.7031 1268.89 16.4062 1268.27 16.875L1264.83 19.4531C1264.44 19.7656 1264.2 20.2344 1264.2 20.7813V24.6094H1265.77V20.7031L1269.2 18.125C1270.14 17.4219 1270.77 16.25 1270.77 15V10.7812H1268.5Z" fill="white"/>
<path d="M1262.64 24.6094V20.7813C1262.64 20.2344 1262.41 19.7656 1262.02 19.4531L1260.84 18.5938L1259.75 19.7656L1261.16 20.8594V24.6875H1262.64V24.6094Z" fill="white"/>
</g>
</g>
<defs>
<clipPath id="clip0_2002_2">
<rect width="1280" height="720" fill="white"/>
</clipPath>
<clipPath id="clip1_2002_2">
<rect width="25" height="25" fill="white" transform="translate(1251 5)"/>
</clipPath>
</defs>
</svg>
